<?xml version="1.0" encoding="utf-8"?>
<!-- Generator: Adobe Illustrator 21.0.0, SVG Export Plug-In . SVG Version: 6.00 Build 0)  -->
<svg version="1.1" xmlns="http://www.w3.org/2000/svg" xmlns:xlink="http://www.w3.org/1999/xlink" x="0px" y="0px"
	 viewBox="0 0 512 512" style="enable-background:new 0 0 512 512;" xml:space="preserve">
<style type="text/css">
	.st0{opacity:0.71;fill:#FF0000;}
	.st1{opacity:0.71;fill:#01A0C6;}
</style>
<g id="Layer_4">
</g>
<g id="Layer_2">
	<path class="st0" d="M449,139.9V284c0,60.3-48.9,109.1-109.1,109.1H227.2L119.8,500.5V393.1C60.7,391.8,13.2,343.5,13.2,284V139.9
		c0-60.3,48.9-109.1,109.1-109.1h217.5C400.1,30.8,449,79.7,449,139.9z"/>
	<path class="st1" d="M500.3,139.1v144.1c0,60.3-48.9,109.1-109.1,109.1H278.5L171.2,499.7V392.3C112.1,391,64.5,342.6,64.5,283.2
		V139.1C64.5,78.9,113.4,30,173.6,30h217.5C451.4,30,500.3,78.9,500.3,139.1z"/>
</g>
<g id="Layer_3">
	<path d="M474.6,139.9V284c0,60.3-48.9,109.1-109.1,109.1H252.9L145.5,500.5V393.1C86.4,391.8,38.9,343.5,38.9,284V139.9
		C38.9,79.7,87.7,30.8,148,30.8h217.5C425.8,30.8,474.6,79.7,474.6,139.9z"/>
</g>
</svg>
