<svg height="512pt" viewBox="-4 0 512 512.00274" width="512pt" xmlns="http://www.w3.org/2000/svg"><path d="m432.800781 356.625-92.683593-80.183594c-2.652344-2.296875-5.726563-4.054687-9.050782-5.175781l-96-32.417969.101563-74.972656 46.625 18.347656c7.210937 2.839844 15.300781 1.757813 21.480469-2.710937l66.921874-48.394531c10.097657-7.304688 12.363282-21.40625 5.0625-31.503907-7.300781-10.09375-21.40625-12.359375-31.503906-5.058593l-56.921875 41.164062-53.054687-20.878906c-1.347656-4.269532-3.597656-8.136719-6.527344-11.378906-19.101562 5.78125-39.398438 1.859374-54.691406-10.140626h-14.902344c-8.328125 0-16.601562 1.378907-24.480469 4.074219l-86.1875 29.496094c-6.210937 2.121094-11.191406 6.835937-13.640625 12.925781l-31.652344 78.589844c-4.597656 11.421875.4375 24.714844 11.730469 29.613281 11.769531 5.105469 25.222657-.589843 29.925781-12.261719l27.988282-69.5 46.769531-15.960937-.175781 132.546875 48.105468 109.742188-28.859374 83.492187c-4.886719 14.132813 2.609374 29.546875 16.742187 34.433594 14.132813 4.882812 29.546875-2.617188 34.429687-16.746094l32.179688-93.089844c2.140625-6.191406 1.964844-12.945312-.496094-19.015625l-40.023437-98.734375 16.414062.023438 112.285157 37.917969 88.664062 76.707031c11.308594 9.785156 28.40625 8.546875 38.1875-2.757813 9.78125-11.308594 8.546875-28.40625-2.761719-38.191406zm0 0"/><path d="m502.269531 242.757812c-8.507812-23.8125-34.710937-36.21875-58.523437-27.710937s-36.21875 34.710937-27.710938 58.523437c8.507813 23.8125 34.710938 36.21875 58.523438 27.710938 23.8125-8.511719 36.21875-34.710938 27.710937-58.523438zm0 0"/><path d="m209.703125 91.628906c28.035156 0 49.605469-24.9375 45.332031-52.769531-3.476562-22.648437-22.992187-38.859375-45.21875-38.859375-28.039062 0-49.609375 24.941406-45.335937 52.769531 3.476562 22.648438 22.992187 38.859375 45.222656 38.859375zm0 0"/></svg>